<svg width="33" height="32" viewBox="0 0 33 32" fill="none" xmlns="http://www.w3.org/2000/svg">
<path d="M24.459 20.3333C24.459 20.9324 23.9747 21.4167 23.3757 21.4167H21.209C20.6099 21.4167 20.1257 20.9324 20.1257 20.3333C20.1257 19.7343 20.6099 19.25 21.209 19.25H23.3757C23.9747 19.25 24.459 19.7343 24.459 20.3333ZM29.334 19.25V24.6667C29.334 27.0565 27.3905 29 25.0007 29H7.66732C5.27748 29 3.33398 27.0565 3.33398 24.6667V19.25C3.33398 16.8602 5.27748 14.9167 7.66732 14.9167H8.75065V7.33333C8.75065 4.9435 10.6942 3 13.084 3H19.584C21.9738 3 23.9173 4.9435 23.9173 7.33333V14.9167H25.0007C27.3905 14.9167 29.334 16.8602 29.334 19.25ZM10.9173 14.9167H21.7507V7.33333C21.7507 6.13842 20.7789 5.16667 19.584 5.16667H13.084C11.8891 5.16667 10.9173 6.13842 10.9173 7.33333V14.9167ZM7.66732 26.8333H15.2507V17.0833H7.66732C6.4724 17.0833 5.50065 18.0551 5.50065 19.25V24.6667C5.50065 25.8616 6.4724 26.8333 7.66732 26.8333ZM27.1673 19.25C27.1673 18.0551 26.1956 17.0833 25.0007 17.0833H17.4173V26.8333H25.0007C26.1956 26.8333 27.1673 25.8616 27.1673 24.6667V19.25ZM11.459 19.25H9.29232C8.69323 19.25 8.20898 19.7343 8.20898 20.3333C8.20898 20.9324 8.69323 21.4167 9.29232 21.4167H11.459C12.0581 21.4167 12.5423 20.9324 12.5423 20.3333C12.5423 19.7343 12.0581 19.25 11.459 19.25ZM18.5007 8.41667C18.5007 7.81758 18.0164 7.33333 17.4173 7.33333H15.2507C14.6516 7.33333 14.1673 7.81758 14.1673 8.41667C14.1673 9.01575 14.6516 9.5 15.2507 9.5H17.4173C18.0164 9.5 18.5007 9.01575 18.5007 8.41667Z" fill="white"/>
</svg>
