<svg width="24" height="24" viewBox="0 0 24 24" fill="none" xmlns="http://www.w3.org/2000/svg">
<path d="M18.9625 19.5833V19.4333H18.8125H5.6875H5.5375V19.5833V20.6667C5.5375 21.2032 5.1653 21.6 4.75 21.6H3.8125C3.3972 21.6 3.025 21.2032 3.025 20.6667V12.5417V12.4289L2.91663 12.3976L1.75176 12.0611C1.75175 12.0611 1.75175 12.0611 1.75175 12.0611C1.41034 11.9624 1.15 11.5975 1.15 11.1541V10.375C1.15 10.1376 1.31234 9.98333 1.46875 9.98333H2.875H2.97935L3.01564 9.88549L5.34111 3.61533C5.61854 2.8673 6.24676 2.4 6.92387 2.4H17.5761C18.2533 2.4 18.8814 2.86729 19.1589 3.61534L21.4844 9.88549L21.5206 9.98333H21.625H23.0312C23.1876 9.98333 23.35 10.1376 23.35 10.375V11.1541C23.35 11.5975 23.0897 11.9624 22.7482 12.0611L21.5834 12.3976L21.475 12.4289V12.5417V20.6667C21.475 21.2032 21.1028 21.6 20.6875 21.6H19.75C19.3347 21.6 18.9625 21.2032 18.9625 20.6667V19.5833ZM19.75 17.5667H19.9V17.4167V12V11.85H19.75H4.75H4.6V12V17.4167V17.5667H4.75H19.75ZM18.7763 9.89207L18.7764 9.89203C19.3383 9.63232 19.5908 8.91463 19.3774 8.2986C19.3774 8.29859 19.3774 8.29858 19.3774 8.29858L18.0167 4.3676L17.9818 4.26667H17.875H6.625H6.51819L6.48325 4.3676L5.12253 8.29859C5.07267 8.44262 5.04722 8.59578 5.04722 8.75C5.04722 9.41008 5.51449 9.98333 6.13472 9.98333H18.3653C18.5068 9.98333 18.6464 9.95206 18.7763 9.89207ZM9.80931 16.1417L9.80928 16.1417C9.76408 16.1697 9.71533 16.1833 9.66715 16.1833H6.625C6.2097 16.1833 5.8375 15.7866 5.8375 15.25V13.2347C6.83812 13.2527 7.67064 13.4529 8.34157 13.8276C9.04399 14.2198 9.57826 14.8082 9.94438 15.5993C10.0386 15.803 9.96515 16.0454 9.80931 16.1417ZM14.6907 16.1417L14.6907 16.1417C14.5349 16.0454 14.4614 15.803 14.5557 15.5993C14.9218 14.8081 15.4561 14.2198 16.1585 13.8276C16.8294 13.4529 17.6619 13.2527 18.6625 13.2347V15.25C18.6625 15.7866 18.2903 16.1833 17.875 16.1833H14.8328C14.7847 16.1833 14.7359 16.1697 14.6907 16.1417Z" fill="#A9ABAD" stroke="white" stroke-width="0.3"/>
</svg>
