<svg width="20" height="52" viewBox="0 0 20 52" fill="none" xmlns="http://www.w3.org/2000/svg">
<circle cx="10" cy="9.16699" r="2.5" stroke="#66C61C" stroke-width="1.2" stroke-linecap="round" stroke-linejoin="round"/>
<circle cx="10" cy="9.16699" r="2.5" stroke="#66C61C" stroke-width="1.2" stroke-linecap="round" stroke-linejoin="round"/>
<path fill-rule="evenodd" clip-rule="evenodd" d="M14.7129 13.8806L11.177 17.4164C10.5263 18.0665 9.47194 18.0665 8.8212 17.4164L5.28453 13.8806C2.68113 11.2771 2.68121 7.05602 5.28469 4.45258C7.88818 1.84914 12.1092 1.84914 14.7127 4.45258C17.3162 7.05602 17.3163 11.2771 14.7129 13.8806V13.8806Z" stroke="#66C61C" stroke-width="1.2" stroke-linecap="round" stroke-linejoin="round"/>
<path fill-rule="evenodd" clip-rule="evenodd" d="M14.7129 13.8806L11.177 17.4164C10.5263 18.0665 9.47194 18.0665 8.8212 17.4164L5.28453 13.8806C2.68113 11.2771 2.68121 7.05602 5.28469 4.45258C7.88818 1.84914 12.1092 1.84914 14.7127 4.45258C17.3162 7.05602 17.3163 11.2771 14.7129 13.8806V13.8806Z" stroke="#66C61C" stroke-width="1.2" stroke-linecap="round" stroke-linejoin="round"/>
<rect x="9.5" y="30" width="8" height="1" rx="0.5" transform="rotate(-90 9.5 30)" fill="#A9ABAD"/>
<circle cx="10" cy="41.167" r="2.5" stroke="#66C61C" stroke-width="1.2" stroke-linecap="round" stroke-linejoin="round"/>
<circle cx="10" cy="41.167" r="2.5" stroke="#66C61C" stroke-width="1.2" stroke-linecap="round" stroke-linejoin="round"/>
<path fill-rule="evenodd" clip-rule="evenodd" d="M14.7129 45.8806L11.177 49.4164C10.5263 50.0665 9.47194 50.0665 8.8212 49.4164L5.28453 45.8806C2.68113 43.2771 2.68121 39.056 5.28469 36.4526C7.88818 33.8491 12.1092 33.8491 14.7127 36.4526C17.3162 39.056 17.3163 43.2771 14.7129 45.8806V45.8806Z" stroke="#66C61C" stroke-width="1.2" stroke-linecap="round" stroke-linejoin="round"/>
<path fill-rule="evenodd" clip-rule="evenodd" d="M14.7129 45.8806L11.177 49.4164C10.5263 50.0665 9.47194 50.0665 8.8212 49.4164L5.28453 45.8806C2.68113 43.2771 2.68121 39.056 5.28469 36.4526C7.88818 33.8491 12.1092 33.8491 14.7127 36.4526C17.3162 39.056 17.3163 43.2771 14.7129 45.8806V45.8806Z" stroke="#66C61C" stroke-width="1.2" stroke-linecap="round" stroke-linejoin="round"/>
</svg>
