<svg width="20" height="20" viewBox="0 0 20 20" fill="none" xmlns="http://www.w3.org/2000/svg">
<path d="M5.25923 15.8314C4.83638 15.8495 4.41885 15.7379 4.07113 15.5138C3.72341 15.2897 3.46481 14.9655 3.33526 14.5914C3.26845 14.3818 3.23479 14.1642 3.23536 13.9456C3.23536 12.9151 3.23536 11.9155 3.23536 10.9022C3.24335 10.8555 3.23223 10.8077 3.20415 10.7683C3.17607 10.7289 3.13309 10.7006 3.08369 10.6892C2.67342 10.5629 2.31452 10.3232 2.05512 10.0022C1.84873 9.75383 1.71873 9.45814 1.67898 9.14663C1.63924 8.83511 1.69125 8.51941 1.82943 8.23315C2.56941 6.66334 3.30937 5.09351 4.08265 3.53401C4.18827 3.31933 4.33911 3.12645 4.52625 2.96672C4.7134 2.80698 4.93305 2.68363 5.17233 2.60393C5.41161 2.52422 5.66565 2.48978 5.91949 2.50262C6.17333 2.51546 6.42181 2.57532 6.65034 2.67869C8.2043 3.31532 9.75581 3.95426 11.3048 4.59546C13.1178 5.3443 14.9319 6.09311 16.7473 6.84195C17.1856 7.00394 17.5494 7.3028 17.7759 7.68699C17.7976 7.7188 17.8223 7.74866 17.8499 7.77626C18.172 8.12717 18.3432 8.57607 18.3309 9.03693C18.3309 10.6754 18.3309 12.3105 18.3309 13.949C18.3424 14.1983 18.298 14.4471 18.2006 14.6797C18.1032 14.9123 17.9549 15.1235 17.765 15.3001C17.5751 15.4767 17.3479 15.6148 17.0976 15.7057C16.8472 15.7965 16.5793 15.8382 16.3108 15.828L5.25923 15.8314ZM17.2098 10.7132L17.0581 10.6789C16.441 10.5542 15.8757 10.2669 15.4301 9.85137C14.9845 9.43583 14.6775 8.90969 14.5459 8.33617C14.5126 8.21251 14.4571 8.19537 14.335 8.19537H7.22755C7.16835 8.19537 7.10917 8.19537 7.06107 8.19537C6.93522 8.81873 6.60917 9.39214 6.1258 9.8403C5.64243 10.2885 5.02433 10.5904 4.35273 10.7064V12.2624C5.02619 12.3771 5.6461 12.6794 6.12991 13.1292C6.61373 13.579 6.93852 14.1549 7.06107 14.7803H14.4978C14.6206 14.1544 14.946 13.5782 15.4305 13.1283C15.915 12.6785 16.5357 12.3764 17.2098 12.2624V10.7132ZM3.23165 9.60028C3.23165 9.38388 3.23165 9.18464 3.23165 8.98884C3.2393 8.79139 3.27158 8.59545 3.32785 8.4049C3.45478 8.03335 3.70962 7.71076 4.0532 7.48673C4.39677 7.2627 4.81008 7.14963 5.2296 7.16486H14.6939C14.6717 7.12364 14.6532 7.11332 14.631 7.10645L6.20267 3.62676C6.09843 3.57558 5.98352 3.54583 5.86579 3.53954C5.74806 3.53326 5.63029 3.55061 5.52042 3.59037C5.41054 3.63013 5.31116 3.69141 5.22906 3.77C5.14696 3.84859 5.08405 3.94265 5.04461 4.04583C4.64872 4.8668 4.25655 5.68779 3.86066 6.5122C3.52767 7.1992 3.19589 7.8942 2.86537 8.59724C2.81797 8.68534 2.78985 8.78132 2.78263 8.87956C2.7754 8.97781 2.78922 9.07643 2.82328 9.16969C2.85733 9.26295 2.91098 9.349 2.98108 9.42291C3.05118 9.49682 3.13632 9.55711 3.23165 9.60028ZM15.6596 14.7975C15.9297 14.7975 16.1924 14.7975 16.4514 14.7975C16.6423 14.7827 16.8214 14.7055 16.9568 14.5798C17.0923 14.454 17.1754 14.2877 17.1914 14.1105C17.1914 13.8597 17.1914 13.609 17.1914 13.3548C16.5809 13.4132 15.8113 14.1174 15.6596 14.7975ZM5.8956 14.7975C5.7772 14.138 4.9225 13.3548 4.34162 13.3685V14.0109C4.33917 14.1117 4.35823 14.2121 4.39767 14.3061C4.43711 14.4002 4.49617 14.486 4.57146 14.5588C4.64676 14.6316 4.73679 14.6898 4.8364 14.7302C4.93601 14.7706 5.04324 14.7923 5.15192 14.794C5.39611 14.8078 5.63661 14.8009 5.8956 14.8009V14.7975ZM5.8956 8.19537C5.64031 8.19537 5.38499 8.19537 5.1334 8.19537C4.94579 8.1969 4.765 8.2608 4.62381 8.37551C4.48261 8.49021 4.39038 8.64809 4.36384 8.82053C4.34714 9.09167 4.34714 9.36348 4.36384 9.63463C4.73426 9.54532 5.07177 9.36478 5.34075 9.11203C5.60973 8.85929 5.80017 8.54376 5.89189 8.19881L5.8956 8.19537ZM15.667 8.19537C15.7599 8.54243 15.9535 8.85919 16.2269 9.11115C16.5002 9.36311 16.8428 9.54059 17.2172 9.62431C17.2172 9.37699 17.2172 9.1297 17.2172 8.88581C17.2038 8.71235 17.1253 8.54869 16.9956 8.42322C16.8659 8.29776 16.693 8.21839 16.5068 8.19881C16.2294 8.1885 15.9519 8.20225 15.6633 8.20225L15.667 8.19537Z" fill="#A9ABAD"/>
<path d="M12.7771 11.3924C12.7764 11.7438 12.6672 12.0872 12.4633 12.3791C12.2594 12.671 11.9699 12.8983 11.6315 13.0323C11.293 13.1664 10.9208 13.2011 10.5618 13.1321C10.2028 13.0631 9.87315 12.8935 9.61453 12.6448C9.3559 12.396 9.17991 12.0792 9.10875 11.7344C9.03758 11.3897 9.07445 11.0324 9.21472 10.7078C9.35499 10.3831 9.59233 10.1057 9.89679 9.91047C10.2012 9.71528 10.5591 9.61111 10.9253 9.61111C11.1687 9.61111 11.4098 9.65723 11.6348 9.74679C11.8597 9.83634 12.064 9.96759 12.236 10.133C12.408 10.2985 12.5443 10.4949 12.6372 10.7109C12.73 10.927 12.7776 11.1586 12.7771 11.3924ZM10.9253 12.1331C11.1293 12.134 11.3254 12.0573 11.4707 11.9198C11.616 11.7823 11.6986 11.5951 11.7005 11.3993C11.7026 11.2516 11.659 11.1067 11.5751 10.983C11.4912 10.8593 11.3709 10.7623 11.2295 10.7044C11.088 10.6465 10.9318 10.6302 10.7807 10.6578C10.6297 10.6853 10.4906 10.7554 10.3811 10.859C10.2716 10.9627 10.1967 11.0952 10.1659 11.2399C10.1351 11.3845 10.1498 11.5346 10.2081 11.6712C10.2664 11.8078 10.3658 11.9247 10.4935 12.0069C10.6212 12.0892 10.7715 12.1331 10.9253 12.1331Z" fill="#A9ABAD"/>
</svg>
