<svg width="131" height="24" viewBox="0 0 131 24" fill="none" xmlns="http://www.w3.org/2000/svg">
<path d="M19.5 0H9L0 8.70536V18.75H19.5V0Z" fill="#66C61C"/>
<rect width="6.21928" height="3.11538" transform="matrix(-1 0 0 1 22.9216 0)" fill="#66C61C"/>
<rect width="10.8837" height="3.11538" transform="matrix(-1 0 0 1 26.0316 7.78857)" fill="#66C61C"/>
<rect width="7.77411" height="1.55769" transform="matrix(-1 0 0 1 29.14 4.67285)" fill="#66C61C"/>
<rect width="10.8837" height="1.55769" transform="matrix(-1 0 0 1 32.25 12.4614)" fill="#66C61C"/>
<rect width="12.4386" height="3.11538" transform="matrix(-1 0 0 1 29.14 15.5771)" fill="#66C61C"/>
<path d="M10.4823 20.9998C8.34935 20.9998 6.62263 19.2679 6.62263 17.1344C6.62263 15.0009 8.34935 13.269 10.4823 13.269C12.6152 13.269 14.3419 15.0009 14.3419 17.1344C14.3419 19.2679 12.6152 20.9998 10.4823 20.9998Z" fill="#66C61C" stroke="#141414" stroke-width="1.5"/>
<path d="M44.9515 18.5713C43.0023 18.5713 41.4239 18.0543 40.2165 17.0203C39.009 15.969 38.3621 14.5127 38.2759 12.6515L38.25 11.6175L38.2759 10.5576C38.3449 8.69631 38.9831 7.24004 40.1906 6.18878C41.4153 5.13751 43.0023 4.61188 44.9515 4.61188C46.4177 4.61188 47.651 4.879 48.6515 5.41325C49.6692 5.93027 50.4196 6.5593 50.9026 7.30036C51.4028 8.02419 51.6702 8.68769 51.7047 9.29088C51.7219 9.46322 51.6616 9.61832 51.5236 9.75619C51.4028 9.87683 51.2476 9.93715 51.0578 9.93715H47.7718C47.582 9.93715 47.4354 9.89406 47.3319 9.80789C47.2284 9.72172 47.1336 9.59247 47.0473 9.42013C46.8403 8.88588 46.5729 8.50673 46.2452 8.28269C45.9347 8.05865 45.5293 7.94663 45.0291 7.94663C43.6146 7.94663 42.8815 8.86003 42.8298 10.6868L42.8039 11.6692L42.8298 12.5222C42.8643 13.4529 43.0626 14.1422 43.4249 14.5903C43.8044 15.0211 44.3391 15.2366 45.0291 15.2366C45.5638 15.2366 45.9865 15.1245 46.2969 14.9005C46.6074 14.6765 46.8576 14.2973 47.0473 13.7631C47.1336 13.5907 47.2284 13.4615 47.3319 13.3753C47.4354 13.2891 47.582 13.2461 47.7718 13.2461H51.0578C51.2303 13.2461 51.377 13.3064 51.4977 13.427C51.6357 13.5304 51.7047 13.6683 51.7047 13.8406C51.7047 14.3921 51.4632 15.0384 50.9802 15.7794C50.5145 16.5205 49.7727 17.1754 48.755 17.7441C47.7373 18.2956 46.4694 18.5713 44.9515 18.5713Z" fill="white"/>
<path d="M58.0658 18.5713C57.1515 18.5713 56.3149 18.399 55.5559 18.0543C54.8142 17.6924 54.2277 17.2098 53.7965 16.6067C53.3825 15.9862 53.1755 15.3055 53.1755 14.5644C53.1755 13.3753 53.6585 12.4188 54.6245 11.695C55.6077 10.9712 56.9532 10.4714 58.6609 10.1957L61.8952 9.70449V9.34258C61.8952 8.68769 61.7572 8.20514 61.4812 7.89493C61.2052 7.58472 60.7395 7.42962 60.084 7.42962C59.6872 7.42962 59.3595 7.49855 59.1007 7.63642C58.842 7.77429 58.5746 7.96387 58.2986 8.20514C58.0571 8.41195 57.876 8.54982 57.7553 8.61875C57.7035 8.75663 57.6086 8.82556 57.4707 8.82556H54.6503C54.4778 8.82556 54.3312 8.77386 54.2105 8.67046C54.107 8.54982 54.0639 8.41195 54.0811 8.25684C54.0984 7.79153 54.3226 7.27451 54.7538 6.70579C55.2023 6.13707 55.8751 5.64591 56.772 5.2323C57.6863 4.81868 58.8075 4.61188 60.1357 4.61188C62.2574 4.61188 63.8271 5.08581 64.8449 6.03367C65.8626 6.9643 66.3715 8.22238 66.3715 9.80789V17.6665C66.3715 17.8389 66.3111 17.994 66.1903 18.1319C66.0696 18.2525 65.9143 18.3128 65.7246 18.3128H62.7232C62.5507 18.3128 62.3954 18.2525 62.2574 18.1319C62.1367 17.994 62.0763 17.8389 62.0763 17.6665V16.7618C61.6968 17.296 61.1621 17.7355 60.4721 18.0802C59.7994 18.4076 58.9972 18.5713 58.0658 18.5713ZM59.2819 15.6243C60.0753 15.6243 60.7136 15.3658 61.1966 14.8488C61.6968 14.3318 61.9469 13.5735 61.9469 12.5739V12.212L59.7476 12.5998C58.1951 12.8755 57.4189 13.4184 57.4189 14.2284C57.4189 14.6592 57.6 15.0039 57.9623 15.2624C58.3245 15.5037 58.7644 15.6243 59.2819 15.6243Z" fill="white"/>
<path d="M69.9381 18.3128C69.7483 18.3128 69.5931 18.2525 69.4723 18.1319C69.3516 18.0112 69.2912 17.8561 69.2912 17.6665V5.51665C69.2912 5.32708 69.3516 5.17198 69.4723 5.05134C69.5931 4.9307 69.7483 4.87038 69.9381 4.87038H72.9136C73.1034 4.87038 73.2586 4.93932 73.3794 5.07719C73.5174 5.19783 73.5864 5.34432 73.5864 5.51665V6.55069C74.5351 5.43049 75.8116 4.87038 77.4158 4.87038H78.5543C78.744 4.87038 78.8993 4.9307 79.02 5.05134C79.1408 5.17198 79.2011 5.32708 79.2011 5.51665V8.17929C79.2011 8.35163 79.1408 8.50673 79.02 8.64461C78.8993 8.76524 78.744 8.82556 78.5543 8.82556H76.0444C75.3372 8.82556 74.7852 9.02375 74.3885 9.42013C74.009 9.79928 73.8192 10.3421 73.8192 11.0487V17.6665C73.8192 17.8561 73.7502 18.0112 73.6123 18.1319C73.4915 18.2525 73.3363 18.3128 73.1465 18.3128H69.9381Z" fill="white"/>
<path d="M87.9234 18.3128C84.3528 18.3128 82.5674 16.6153 82.5674 13.2202V8.25684H80.5492C80.3595 8.25684 80.1956 8.19652 80.0576 8.07589C79.9369 7.95525 79.8765 7.80014 79.8765 7.61057V5.51665C79.8765 5.32708 79.9369 5.17198 80.0576 5.05134C80.1956 4.9307 80.3595 4.87038 80.5492 4.87038H82.5674V3.64627C82.5674 3.4567 82.6278 3.30159 82.7485 3.18096C82.8865 3.06032 83.0418 3 83.2143 3H86.2157C86.4055 3 86.5607 3.06032 86.6815 3.18096C86.8022 3.30159 86.8626 3.4567 86.8626 3.64627V4.87038H90.0969C90.2866 4.87038 90.4419 4.9307 90.5626 5.05134C90.7006 5.17198 90.7696 5.32708 90.7696 5.51665V7.61057C90.7696 7.80014 90.7006 7.95525 90.5626 8.07589C90.4419 8.19652 90.2866 8.25684 90.0969 8.25684H86.8626V12.8583C86.8626 14.1336 87.3542 14.7713 88.3374 14.7713H90.3298C90.5195 14.7713 90.6747 14.8316 90.7955 14.9522C90.9162 15.0728 90.9766 15.228 90.9766 15.4175V17.6665C90.9766 17.8389 90.9162 17.994 90.7955 18.1319C90.6747 18.2525 90.5195 18.3128 90.3298 18.3128H87.9234Z" fill="white"/>
<path d="M101.169 18.3128C100.98 18.3128 100.824 18.2525 100.704 18.1319C100.583 18.0112 100.522 17.8561 100.522 17.6665V5.51665C100.522 5.32708 100.583 5.17198 100.704 5.05134C100.824 4.9307 100.98 4.87038 101.169 4.87038H104.145C104.335 4.87038 104.49 4.9307 104.611 5.05134C104.749 5.17198 104.818 5.32708 104.818 5.51665V6.49899C105.283 5.93027 105.878 5.47357 106.603 5.12889C107.345 4.78421 108.181 4.61188 109.113 4.61188C110.631 4.61188 111.864 5.12889 112.813 6.16292C113.762 7.17972 114.236 8.61014 114.236 10.4542V17.6665C114.236 17.8389 114.176 17.994 114.055 18.1319C113.934 18.2525 113.779 18.3128 113.589 18.3128H110.329C110.156 18.3128 110.001 18.2525 109.863 18.1319C109.742 17.994 109.682 17.8389 109.682 17.6665V10.6093C109.682 9.79928 109.484 9.17886 109.087 8.74801C108.69 8.29993 108.121 8.07589 107.379 8.07589C106.655 8.07589 106.085 8.29993 105.671 8.74801C105.257 9.17886 105.05 9.79928 105.05 10.6093V17.6665C105.05 17.8389 104.99 17.994 104.869 18.1319C104.749 18.2525 104.593 18.3128 104.404 18.3128H101.169Z" fill="white"/>
<path d="M123.747 24C122.108 24 120.78 23.7329 119.762 23.1986C118.744 22.6644 118.011 22.0526 117.563 21.3632C117.132 20.6739 116.916 20.0965 116.916 19.6312C116.916 19.4761 116.985 19.3382 117.123 19.2176C117.261 19.097 117.416 19.0366 117.589 19.0366H120.875C121.047 19.0366 121.177 19.0711 121.263 19.14C121.366 19.2262 121.461 19.3641 121.547 19.5537C121.72 19.95 121.953 20.2602 122.246 20.4843C122.539 20.7256 122.996 20.8462 123.617 20.8462C124.411 20.8462 124.997 20.648 125.377 20.2516C125.756 19.8725 125.946 19.2262 125.946 18.3128V16.5808C125.066 17.5459 123.807 18.0285 122.168 18.0285C120.426 18.0285 119.089 17.5201 118.158 16.5033C117.244 15.4692 116.743 13.9785 116.657 12.0311L116.631 11.3331C116.631 9.24779 117.097 7.61057 118.029 6.42143C118.96 5.21506 120.34 4.61188 122.168 4.61188C123.048 4.61188 123.824 4.78421 124.497 5.12889C125.17 5.45634 125.739 5.90442 126.205 6.47313V5.51665C126.205 5.32708 126.265 5.17198 126.386 5.05134C126.524 4.9307 126.679 4.87038 126.852 4.87038H129.827C130.017 4.87038 130.172 4.93932 130.293 5.07719C130.431 5.19783 130.5 5.34432 130.5 5.51665V17.9509C130.5 19.9156 129.914 21.4149 128.741 22.4489C127.568 23.483 125.903 24 123.747 24ZM123.566 14.6679C124.342 14.6679 124.92 14.4352 125.299 13.9699C125.679 13.4873 125.894 12.8841 125.946 12.1603C125.963 12.0397 125.972 11.7726 125.972 11.3589C125.972 10.9626 125.963 10.7041 125.946 10.5834C125.912 9.85959 125.696 9.26503 125.299 8.79971C124.92 8.31716 124.342 8.07589 123.566 8.07589C122.755 8.07589 122.168 8.31716 121.806 8.79971C121.444 9.28226 121.246 9.94576 121.211 10.7902L121.185 11.3589C121.185 12.3757 121.358 13.1857 121.703 13.7889C122.048 14.3749 122.669 14.6679 123.566 14.6679Z" fill="white"/>
<path d="M94.3936 18.3225C94.2047 18.3225 94.0502 18.2622 93.93 18.1418C93.8098 18.0214 93.7497 17.8665 93.7497 17.6773V5.54825C93.7497 5.359 93.8098 5.20416 93.93 5.08373C94.0502 4.9633 94.2047 4.90308 94.3936 4.90308H97.4332C97.6221 4.90308 97.7767 4.9633 97.8969 5.08373C98.0171 5.20416 98.0772 5.359 98.0772 5.54825V17.6773C98.0772 17.8493 98.0171 18.0042 97.8969 18.1418C97.7767 18.2622 97.6221 18.3225 97.4332 18.3225H94.3936Z" fill="#66C61C"/>
</svg>
