<svg width="20" height="20" viewBox="0 0 20 20" fill="none" xmlns="http://www.w3.org/2000/svg">
<path d="M13.2959 4.41343C14.7161 4.41343 15.858 5.52297 15.858 6.88693C15.858 8.22262 14.76 9.31095 13.3911 9.36042C13.3326 9.35336 13.2667 9.35336 13.2008 9.36042M14.7088 15.7208C15.2358 15.6148 15.7336 15.4099 16.1435 15.106C17.2855 14.2792 17.2855 12.9152 16.1435 12.0883C15.7409 11.7915 15.2505 11.5936 14.7307 11.4806M7.98876 9.26855C7.91556 9.26148 7.82771 9.26148 7.74719 9.26855C6.00497 9.21201 4.62144 7.83392 4.62144 6.13781C4.62144 4.40636 6.07085 3 7.87163 3C9.6651 3 11.1218 4.40636 11.1218 6.13781C11.1145 7.83392 9.73098 9.21201 7.98876 9.26855ZM4.32863 11.8763C2.55712 13.0212 2.55712 14.8869 4.32863 16.0247C6.3417 17.3251 9.64314 17.3251 11.6562 16.0247C13.4277 14.8799 13.4277 13.0141 11.6562 11.8763C9.65046 10.583 6.34902 10.583 4.32863 11.8763Z" stroke="#A9ABAD" stroke-width="1.2" stroke-linecap="round" stroke-linejoin="round"/>
</svg>
