<svg width="24" height="24" viewBox="0 0 24 24" fill="none" xmlns="http://www.w3.org/2000/svg">
<path d="M20.6843 13.7811L19.9541 13.6098L20.6843 13.7811ZM20.6843 8.324L19.9541 8.49528L20.6843 8.324ZM5.21068 8.324L4.4805 8.15273L5.21068 8.324ZM5.21068 13.781L4.4805 13.9523L5.21068 13.781ZM10.219 18.7893L10.3902 18.0591L10.219 18.7893ZM15.676 18.7893L15.8473 19.5195L15.676 18.7893ZM15.676 3.31573L15.8473 2.58555L15.676 3.31573ZM10.219 3.31573L10.0477 2.58555L10.219 3.31573ZM3.53033 21.5303C3.23744 21.8232 2.76256 21.8232 2.46967 21.5303C2.17678 21.2374 2.17678 20.7626 2.46967 20.4697L3.53033 21.5303ZM19.9541 13.6098C20.3486 11.9278 20.3486 10.1773 19.9541 8.49528L21.4145 8.15272C21.8618 10.06 21.8618 12.045 21.4145 13.9523L19.9541 13.6098ZM5.94086 8.49528C5.54632 10.1773 5.54632 11.9278 5.94086 13.6098L4.4805 13.9523C4.0331 12.045 4.0331 10.06 4.4805 8.15273L5.94086 8.49528ZM10.3902 18.0591C12.0722 18.4537 13.8227 18.4537 15.5047 18.0591L15.8473 19.5195C13.94 19.9669 11.955 19.9669 10.0477 19.5195L10.3902 18.0591ZM15.5047 4.04591C13.8227 3.65136 12.0722 3.65136 10.3902 4.04591L10.0477 2.58555C11.955 2.13815 13.94 2.13815 15.8473 2.58555L15.5047 4.04591ZM15.5047 18.0591C17.7124 17.5413 19.4362 15.8175 19.9541 13.6098L21.4145 13.9523C20.7665 16.7147 18.6096 18.8715 15.8473 19.5195L15.5047 18.0591ZM10.0477 19.5195C7.28532 18.8715 5.12846 16.7147 4.4805 13.9523L5.94086 13.6098C6.45872 15.8175 8.18252 17.5413 10.3902 18.0591L10.0477 19.5195ZM10.3902 4.04591C8.18252 4.56377 6.45872 6.28757 5.94086 8.49528L4.4805 8.15273C5.12846 5.39037 7.28532 3.23351 10.0477 2.58555L10.3902 4.04591ZM15.8473 2.58555C18.6096 3.23351 20.7665 5.39037 21.4145 8.15272L19.9541 8.49528C19.4362 6.28756 17.7124 4.56377 15.5047 4.04591L15.8473 2.58555ZM7.19519 17.8655L3.53033 21.5303L2.46967 20.4697L6.13453 16.8048L7.19519 17.8655Z" fill="#A9ABAD"/>
</svg>
